<svg xmlns="http://www.w3.org/2000/svg" id="Layer_1" data-name="Layer 1" viewBox="0 0 297 168.73"><defs><style>      .cls-1 {        fill: #fff;        stroke-width: 0px;      }    </style></defs><g><path class="cls-1" d="M141.56,94.64c-7.72,0-14.14-1.53-19.26-4.59-5.13-3.06-8.95-7.34-11.48-12.83-2.53-5.49-3.79-11.93-3.79-19.31s1.26-13.52,3.79-19.01c2.53-5.49,6.37-9.78,11.53-12.87,5.16-3.09,11.66-4.64,19.51-4.64,4.79,0,8.85.52,12.18,1.55,3.33,1.03,5.85,2.43,7.59,4.19,1.73,1.76,2.59,3.74,2.59,5.94,0,2.46-1.06,4.51-3.19,6.14-2.13,1.63-5.22,2.45-9.28,2.45,0-4.52-.43-8.2-1.3-11.03-.86-2.83-2.18-4.91-3.94-6.24-1.76-1.33-4.08-2-6.94-2-3.66,0-6.66,1.23-8.98,3.69-2.33,2.46-4.04,6.3-5.14,11.53-1.1,5.22-1.65,11.99-1.65,20.31s.68,15.11,2.05,20.36c1.36,5.26,3.49,9.12,6.39,11.58,2.89,2.46,6.6,3.69,11.13,3.69,4.86,0,8.82-1.38,11.88-4.14,3.06-2.76,5.12-6.84,6.19-12.23.86.33,1.53.87,2,1.6.46.73.7,1.66.7,2.79,0,1.33-.38,2.75-1.15,4.24-.77,1.5-2.01,2.93-3.74,4.29-1.73,1.36-4.04,2.46-6.94,3.29-2.89.83-6.47,1.25-10.73,1.25Z"></path><path class="cls-1" d="M182.88,94.44c-2,0-3.68-.58-5.04-1.75-1.36-1.16-2.05-3.24-2.05-6.24s.68-5.16,2.05-6.29c1.36-1.13,3.04-1.7,5.04-1.7s3.59.57,4.99,1.7c1.4,1.13,2.09,3.23,2.09,6.29s-.7,5.07-2.09,6.24c-1.4,1.16-3.06,1.75-4.99,1.75Z"></path></g><rect class="cls-1" x="105.23" y="109.84" width="86.53" height="1.81"></rect><g><path class="cls-1" d="M29.45,147.34c-1.99,0-3.66-.43-5-1.29-1.34-.86-2.35-2.06-3.01-3.6-.67-1.54-1-3.34-1-5.4s.34-3.85,1.01-5.4c.67-1.56,1.7-2.77,3.07-3.65,1.37-.87,3.11-1.31,5.21-1.31,1.26,0,2.32.15,3.18.45.86.3,1.52.69,1.97,1.18.45.49.68,1.03.68,1.63,0,.64-.25,1.14-.76,1.49-.51.36-1.16.53-1.97.53,0-1.2-.12-2.17-.37-2.9-.24-.73-.62-1.26-1.14-1.59-.52-.33-1.2-.49-2.04-.49-1.24,0-2.25.36-3.03,1.1-.78.73-1.35,1.83-1.7,3.31-.36,1.47-.53,3.33-.53,5.56s.2,4.15.6,5.64,1.03,2.61,1.89,3.35c.85.74,1.97,1.11,3.34,1.11,1.29,0,2.35-.34,3.15-1.03.81-.68,1.4-1.76,1.77-3.22.24.09.42.23.53.42s.17.41.17.68c0,.37-.12.76-.35,1.15-.23.39-.6.76-1.08,1.11-.49.35-1.11.63-1.87.84-.76.22-1.67.32-2.72.32Z"></path><path class="cls-1" d="M40.09,139.66v-.56h7.32v.56h-7.32Z"></path><path class="cls-1" d="M58.16,147.34c-.98,0-1.84-.1-2.6-.31-.76-.21-1.39-.49-1.9-.84-.51-.36-.89-.77-1.14-1.25s-.38-.98-.38-1.51c0-.49.1-.89.29-1.2.2-.31.47-.54.83-.7.36-.16.76-.24,1.21-.24.02,1.37.18,2.48.48,3.32.3.84.74,1.46,1.34,1.86.59.39,1.32.59,2.18.59,1.18,0,2.14-.34,2.89-1.01.74-.68,1.11-1.67,1.11-2.98,0-.86-.17-1.56-.51-2.1s-.85-1.02-1.55-1.45c-.69-.43-1.6-.89-2.7-1.38-.67-.3-1.33-.63-1.96-.99-.63-.36-1.19-.77-1.68-1.24s-.87-1.03-1.14-1.68c-.27-.65-.41-1.39-.41-2.24,0-1.14.25-2.11.76-2.9.51-.79,1.23-1.39,2.18-1.8.95-.41,2.06-.62,3.34-.62,1.14,0,2.13.15,2.94.45.82.3,1.45.69,1.91,1.18.46.49.69,1.02.69,1.6s-.23,1.05-.69,1.39-1.08.52-1.87.52c0-1.63-.25-2.85-.75-3.65-.5-.8-1.33-1.2-2.49-1.2-.64,0-1.22.13-1.76.39s-.95.66-1.25,1.2c-.3.53-.45,1.23-.45,2.1s.17,1.58.51,2.14c.34.56.85,1.06,1.55,1.48.69.42,1.59.89,2.67,1.39,1.05.45,1.97.92,2.77,1.42.8.5,1.42,1.1,1.87,1.82.45.71.68,1.61.68,2.7,0,1.16-.27,2.17-.82,3.03-.54.85-1.34,1.52-2.38,1.98-1.04.47-2.3.7-3.79.7Z"></path><path class="cls-1" d="M77.25,147.34c-1.65,0-2.88-.44-3.69-1.31-.81-.87-1.21-2.27-1.21-4.18v-7.21c0-.62-.07-1.1-.21-1.45-.14-.35-.37-.59-.69-.73-.32-.14-.75-.21-1.3-.21h-.08v-.28h5.38v10.25c0,1.09.08,1.97.24,2.65.16.67.43,1.17.8,1.49.37.32.88.48,1.52.48.79,0,1.43-.22,1.94-.68.51-.45.88-1.09,1.13-1.93s.37-1.83.37-3v-6.64c0-.62-.08-1.09-.24-1.42-.16-.33-.4-.56-.73-.7-.33-.14-.75-.21-1.25-.21h-.08v-.28h5.4v12.53c0,.6.08,1.06.25,1.39s.42.56.75.69c.33.13.74.2,1.22.2h.08v.28h-5.26v-3.52h-.06c-.15.86-.38,1.55-.7,2.06-.32.51-.68.88-1.08,1.13s-.82.41-1.25.49c-.43.08-.84.13-1.24.13Z"></path><path class="cls-1" d="M90.93,147.06v-.28h.37c.49,0,.9-.07,1.22-.2s.58-.35.75-.65.25-.71.25-1.24v-10.39c0-.51-.08-.91-.25-1.21-.17-.3-.42-.52-.75-.65s-.74-.2-1.22-.2h-.14v-.28h5.46v12.64c0,.54.08.98.25,1.29.17.32.42.54.76.68.34.13.74.2,1.21.2h.37v.28h-8.28ZM94.93,129.33c-.41,0-.76-.13-1.03-.39-.27-.26-.41-.7-.41-1.32s.14-1.06.41-1.31c.27-.25.61-.38,1.03-.38s.73.13,1.01.38c.28.25.42.69.42,1.31s-.14,1.06-.42,1.32-.62.39-1.01.39Z"></path><path class="cls-1" d="M109.2,147.34c-1.39,0-2.42-.32-3.1-.97s-1.01-1.79-1.01-3.42v-10.7h-2.11v-.28c.73,0,1.37-.07,1.93-.21s1.03-.36,1.42-.66c.41-.3.75-.69,1-1.17.25-.48.45-1.06.58-1.73h.28v3.77h3.86v.28h-3.86v11.8c0,.96.18,1.67.55,2.14.36.47.9.7,1.62.7.26,0,.54-.03.83-.08s.6-.14.92-.25v.28c-.24.11-.64.22-1.18.34-.54.11-1.12.17-1.72.17Z"></path><path class="cls-1" d="M123.92,147.34c-2.2,0-3.89-.67-5.08-2.03-1.19-1.35-1.79-3.25-1.79-5.69,0-2.65.56-4.64,1.69-5.97,1.13-1.33,2.71-2,4.76-2,1.88,0,3.35.57,4.43,1.7,1.08,1.14,1.62,2.82,1.62,5.05v.68h-9.32c0,1.9.13,3.43.39,4.6.26,1.17.68,2.03,1.27,2.56.58.53,1.34.8,2.28.8.69,0,1.31-.14,1.86-.41.54-.27,1-.68,1.38-1.22.38-.54.63-1.23.76-2.05.26.06.45.18.58.38.12.2.18.42.18.66,0,.41-.18.85-.55,1.31-.37.46-.92.84-1.66,1.15-.74.31-1.67.46-2.8.46ZM126.32,138.82c0-1.67-.09-3-.28-4-.19-.99-.49-1.72-.9-2.18-.41-.46-.97-.69-1.66-.69-.73,0-1.33.23-1.79.69-.46.46-.8,1.19-1.03,2.18-.23,1-.37,2.33-.42,4h6.08Z"></path><path class="cls-1" d="M134.51,147.06v-.28h1.18c.28,0,.53-.04.75-.13.21-.08.38-.26.51-.52.12-.26.18-.66.18-1.18v-15.99c0-.51-.07-.88-.2-1.13-.13-.24-.3-.4-.52-.48-.21-.07-.45-.11-.72-.11h-1.18v-.28h8.64c2.61,0,4.54.53,5.8,1.6,1.26,1.07,1.89,2.52,1.89,4.36,0,.84-.15,1.65-.45,2.42-.3.77-.77,1.46-1.42,2.07s-1.5,1.09-2.56,1.44c-1.06.35-2.35.52-3.87.52h-.96v5.71c0,.49.07.85.21,1.1.14.24.32.4.55.48.22.07.47.11.73.11h1.72v.28h-10.28ZM142.25,139.1c.69,0,1.29-.11,1.77-.32.49-.22.89-.56,1.2-1.04.31-.48.53-1.09.67-1.84.14-.75.21-1.66.21-2.73,0-1.43-.11-2.57-.34-3.43s-.59-1.49-1.1-1.89c-.51-.39-1.17-.59-2-.59h-1.1v11.85h.68Z"></path><path class="cls-1" d="M160.27,147.34c-1.41,0-2.51-.4-3.31-1.2s-1.2-1.86-1.2-3.2c0-1.44.52-2.49,1.58-3.13,1.05-.64,2.63-.99,4.73-1.07l2.31-.08v-3.58c0-.83-.06-1.47-.17-1.93-.11-.46-.29-.79-.53-.98s-.58-.3-1.01-.3c-.75,0-1.26.32-1.52.96-.26.64-.39,1.81-.39,3.52-1.26,0-2.21-.14-2.84-.44-.64-.29-.96-.78-.96-1.48s.26-1.22.79-1.65c.52-.42,1.23-.73,2.11-.92.88-.19,1.85-.28,2.9-.28,1.97,0,3.45.36,4.43,1.07.98.71,1.48,1.95,1.48,3.72v8.39c0,.51.05.91.15,1.2.1.29.28.5.54.62.25.12.59.18,1,.18h.11v.28h-6.02v-2.84h-.06c-.24.81-.57,1.44-.98,1.89-.41.45-.89.77-1.42.96s-1.1.28-1.7.28ZM161.7,146.56c.54,0,1.02-.21,1.42-.62s.71-.95.93-1.6.32-1.35.32-2.08v-3.29l-1.27.06c-1.13.06-1.91.38-2.34.97-.43.59-.65,1.55-.65,2.89,0,.9.06,1.62.17,2.17.11.54.29.93.52,1.17.23.23.53.35.89.35Z"></path><path class="cls-1" d="M174.74,147.06v-.28h.25c.28,0,.58-.04.89-.13.31-.08.57-.26.79-.52.21-.26.32-.66.32-1.18v-10.98c0-.51-.11-.88-.34-1.13-.22-.24-.49-.4-.8-.48-.31-.07-.6-.11-.86-.11h-.11v-.28h6.39v2.42h.06c.21-.62.48-1.13.82-1.53.34-.4.76-.71,1.28-.92.52-.21,1.12-.31,1.82-.31,1.05,0,1.85.21,2.41.65.55.43.83,1.03.83,1.8s-.32,1.44-.96,1.89c-.64.45-1.51.68-2.62.68,0-1.43-.14-2.41-.42-2.94-.28-.53-.68-.8-1.21-.8-.28,0-.54.08-.79.23-.24.15-.46.4-.63.75-.18.35-.32.81-.42,1.38-.1.57-.15,1.29-.15,2.15v7.54c0,.53.11.92.32,1.18.22.26.48.44.8.52.32.08.61.13.87.13h.87v.28h-9.4Z"></path><path class="cls-1" d="M198.55,147.34c-1.26,0-2.26-.33-3.01-.98-.75-.66-1.13-1.81-1.13-3.46v-10.64h-2.11v-.28c.92,0,1.73-.09,2.42-.28.69-.19,1.3-.49,1.8-.9.47-.37.86-.85,1.17-1.42s.55-1.24.72-2.01h.28v4.62h3.6v.28h-3.6v11.91c0,.88.17,1.53.51,1.94.34.41.84.62,1.49.62.26,0,.55-.03.86-.08.31-.06.64-.15,1-.28v.28c-.3.13-.79.28-1.48.45-.69.17-1.53.25-2.52.25Z"></path><path class="cls-1" d="M206.41,147.06v-.28h.34c.28,0,.58-.04.89-.13.31-.08.57-.26.79-.52.21-.26.32-.66.32-1.18v-10.98c0-.51-.11-.88-.34-1.13-.22-.24-.49-.4-.8-.48-.31-.07-.6-.11-.86-.11h-.34v-.28h6.62v2.56h.06c.22-.84.54-1.47.96-1.89.41-.41.89-.69,1.44-.83.54-.14,1.09-.21,1.63-.21,1.65,0,2.88.43,3.69,1.29.81.86,1.21,2.24,1.21,4.14v7.74c0,.58.07,1.01.21,1.3.14.28.35.47.63.56.28.09.63.14,1.04.14h.08v.28h-6.25v-10.95c0-1.22-.16-2.14-.48-2.75s-.86-.91-1.63-.91c-.66,0-1.18.22-1.56.68-.38.45-.65,1.08-.8,1.89s-.22,1.74-.22,2.79v7.15c0,.53.11.92.32,1.18.22.26.48.44.8.52.32.08.61.13.87.13h.34v.28h-8.95Z"></path><path class="cls-1" d="M236.28,147.34c-2.44,0-4.29-.68-5.55-2.04-1.26-1.36-1.89-3.26-1.89-5.7,0-2.65.61-4.64,1.83-5.98,1.22-1.34,2.94-2.01,5.15-2.01,2.05,0,3.66.57,4.83,1.72,1.17,1.15,1.76,2.83,1.76,5.07v.68h-9.23c0,1.9.13,3.43.38,4.6.25,1.17.66,2.03,1.21,2.56s1.27.8,2.15.8c.66,0,1.25-.14,1.79-.42.53-.28.98-.73,1.35-1.35.37-.62.61-1.44.72-2.48.37.07.64.23.8.48.16.24.24.52.24.84,0,.52-.21,1.04-.62,1.53-.41.5-1.03.91-1.84,1.22-.82.32-1.84.48-3.08.48ZM238.13,138.79c0-1.71-.07-3.06-.2-4.07-.13-1-.37-1.73-.7-2.17s-.81-.66-1.41-.66-1.1.22-1.49.66c-.39.44-.68,1.16-.86,2.17-.18,1-.28,2.36-.3,4.07h4.95Z"></path><path class="cls-1" d="M246.97,147.06v-.28h.25c.28,0,.58-.04.89-.13.31-.08.57-.26.79-.52.21-.26.32-.66.32-1.18v-10.98c0-.51-.11-.88-.34-1.13-.22-.24-.49-.4-.8-.48-.31-.07-.6-.11-.86-.11h-.11v-.28h6.39v2.42h.06c.21-.62.48-1.13.82-1.53.34-.4.76-.71,1.28-.92.52-.21,1.12-.31,1.82-.31,1.05,0,1.85.21,2.41.65.55.43.83,1.03.83,1.8s-.32,1.44-.96,1.89c-.64.45-1.51.68-2.62.68,0-1.43-.14-2.41-.42-2.94-.28-.53-.68-.8-1.21-.8-.28,0-.54.08-.79.23-.24.15-.46.4-.63.75-.18.35-.32.81-.42,1.38-.1.57-.15,1.29-.15,2.15v7.54c0,.53.11.92.32,1.18.22.26.48.44.8.52.32.08.61.13.87.13h.87v.28h-9.4Z"></path><path class="cls-1" d="M270.17,147.34c-1.22,0-2.23-.14-3.03-.44-.8-.29-1.39-.68-1.77-1.18-.38-.5-.58-1.06-.58-1.67s.15-1.08.45-1.38.66-.5,1.07-.61c.41-.1.78-.15,1.1-.15,0,1.28.11,2.29.32,3.06.21.76.55,1.3,1.01,1.62.46.32,1.05.48,1.76.48.9,0,1.63-.22,2.18-.68.55-.45.83-1.15.83-2.11,0-.64-.13-1.14-.39-1.49s-.67-.67-1.22-.94c-.55-.27-1.26-.57-2.13-.89-.84-.32-1.62-.67-2.34-1.04-.71-.37-1.28-.86-1.72-1.45-.43-.59-.65-1.37-.65-2.32,0-1.52.55-2.65,1.65-3.39,1.1-.74,2.58-1.11,4.43-1.11,1.18,0,2.13.13,2.84.38.71.25,1.23.59,1.56,1,.33.41.49.86.49,1.35,0,.54-.22.98-.66,1.32-.44.34-1.18.51-2.21.51,0-1.59-.21-2.71-.62-3.34-.41-.63-1.03-.94-1.86-.94-.39,0-.79.07-1.18.22-.39.15-.72.41-.99.77s-.39.89-.39,1.56c0,.6.13,1.08.41,1.44s.71.68,1.31.96c.6.28,1.41.61,2.42.98.86.32,1.61.67,2.25,1.06.64.38,1.13.86,1.49,1.44.36.57.53,1.3.53,2.18,0,1.48-.54,2.66-1.62,3.52s-2.67,1.29-4.77,1.29Z"></path></g></svg>