<?xml version="1.0" encoding="UTF-8"?>
<svg xmlns="http://www.w3.org/2000/svg" viewBox="0 0 1306 131" width="1306" height="131" role="img" aria-label="Lateralus wordmark (sand)">
  <path d="M 1249.419 2.822 C 1239.679 6.189, 1231.388 14.342, 1229.015 22.887 C 1227.649 27.802, 1227.738 39.941, 1229.170 44.101 C 1233.251 55.955, 1240.465 60.751, 1271.105 71.981 C 1278.867 74.826, 1285.684 79.565, 1288.811 84.291 C 1291.926 88.998, 1292.997 99.450, 1290.987 105.539 C 1287.955 114.726, 1278.637 120.524, 1267 120.466 C 1251.571 120.389, 1239.378 111.100, 1232.492 94.176 C 1230.270 88.713, 1230.060 88.515, 1226.842 88.846 C 1225.004 89.036, 1223.415 89.271, 1223.311 89.368 C 1223.073 89.591, 1225.761 119.020, 1226.543 124.750 C 1227.072 128.627, 1227.374 129, 1229.990 129 C 1232.649 129, 1232.946 128.602, 1234.087 123.500 C 1234.764 120.475, 1235.627 118, 1236.004 118 C 1236.381 118, 1237.460 118.851, 1238.400 119.890 C 1240.899 122.651, 1251.790 127.762, 1258.025 129.099 C 1264.546 130.497, 1276.785 129.743, 1283 127.560 C 1290.356 124.976, 1296.919 119.275, 1300.885 112.024 C 1304.060 106.220, 1304.469 104.598, 1304.828 96.378 C 1305.369 84.027, 1303.484 78.334, 1296.597 71.520 C 1290.686 65.671, 1283.107 61.459, 1270.597 57.071 C 1248.650 49.373, 1241 42.376, 1241 30 C 1241 14.912, 1256.028 6.041, 1273.303 10.930 C 1281.913 13.367, 1290.437 23.233, 1294.413 35.363 C 1294.859 36.722, 1295.631 37.064, 1297.262 36.627 C 1298.493 36.297, 1300.200 36.021, 1301.056 36.014 C 1302.457 36.001, 1302.436 34.467, 1300.857 20.750 C 1299.892 12.363, 1299.079 4.488, 1299.051 3.250 C 1299.008 1.370, 1298.444 1, 1295.619 1 C 1292.448 1, 1292.167 1.279, 1291.108 5.484 L 1289.979 9.969 1285.240 7.084 C 1282.633 5.497, 1278.347 3.479, 1275.715 2.599 C 1269.241 0.435, 1255.998 0.547, 1249.419 2.822 M 0 6.421 C 0 10.093, -0.284 9.935, 9.274 11.582 C 16.236 12.781, 16 10.888, 16 65.500 C 16 121.156, 16.394 118.417, 8.235 119.525 C 0.533 120.571, -0 120.865, -0 124.067 L 0 127 41.835 127 L 83.670 127 85.395 112.750 C 86.343 104.912, 87.380 96.782, 87.698 94.681 L 88.278 90.863 84.420 91.181 L 80.562 91.500 77.330 100.277 C 70.950 117.601, 68.642 118.946, 45.250 118.978 L 29 119 29 67.071 C 29 10.390, 28.752 12.782, 34.740 11.635 C 36.258 11.344, 39.862 10.815, 42.750 10.459 C 47.929 9.821, 48 9.766, 48 6.406 L 48 3 24 3 L 0 3 0 6.421 M 180 27.194 C 175.325 40.495, 171.355 51.968, 171.177 52.689 C 170.943 53.636, 172.215 54, 175.755 54 L 180.657 54 187.013 35.304 L 193.369 16.608 199.514 35.054 L 205.660 53.500 212.330 53.796 C 215.998 53.958, 219 53.701, 219 53.223 C 219 52.746, 215.175 41.422, 210.500 28.058 C 205.825 14.695, 202 3.590, 202 3.381 C 202 3.171, 198.963 3.002, 195.250 3.005 L 188.500 3.009 180 27.194 M 289 3.344 C 289 3.819, 283.147 32.986, 282.511 35.682 C 282.154 37.196, 282.532 38.014, 283.748 38.353 C 284.712 38.621, 286.512 39.132, 287.750 39.488 C 289.111 39.879, 290 39.700, 290 39.035 C 290 36.052, 296.590 21.397, 299.340 18.265 C 303.940 13.027, 307.320 12, 319.968 12 L 331 12 331 63.045 L 331 114.091 328.701 116.390 C 327.149 117.942, 324.630 118.920, 320.951 119.400 C 311.614 120.619, 311 120.909, 311 124.108 L 311 127 337.500 127 L 364 127 364 124 C 364 122.350, 363.887 120.999, 363.750 120.999 C 363.613 120.998, 359.675 120.326, 355 119.506 C 349.501 118.540, 346.059 117.414, 345.250 116.316 C 344.288 115.009, 344 102.784, 344 63.309 L 344 12 355.032 12 C 367.680 12, 371.060 13.027, 375.660 18.265 C 378.410 21.397, 385 36.052, 385 39.035 C 385 39.657, 385.869 39.888, 387 39.567 C 388.100 39.255, 389.919 38.739, 391.042 38.419 C 392.367 38.043, 392.909 37.252, 392.587 36.169 C 392.314 35.251, 390.921 28.200, 389.491 20.500 C 388.060 12.800, 386.660 5.712, 386.378 4.750 C 385.899 3.114, 382.697 3, 337.433 3 C 310.795 3, 289 3.155, 289 3.344 M 447 6.500 C 447 8.425, 447.142 10, 447.316 10 C 449.610 10, 459.811 12.441, 460.750 13.215 C 461.720 14.014, 462 25.622, 462 65.051 C 462 121.494, 462.389 118.367, 455.218 119.518 C 447.085 120.824, 447 120.871, 447 124.019 L 447 127 489.500 127 C 522.825 127, 532.003 126.730, 532.016 125.750 C 532.024 125.063, 532.924 118.213, 534.016 110.529 C 535.107 102.845, 536 96.432, 536 96.279 C 536 96.125, 534.290 96, 532.200 96 L 528.401 96 526.224 103.400 C 523.734 111.862, 520.039 116.340, 514.209 117.959 C 512.169 118.525, 502.512 118.991, 492.750 118.994 L 475 119 475 94 L 475 69 488.953 69 C 507.160 69, 508.422 69.607, 510.950 79.578 C 511.913 83.374, 512.192 83.625, 514.992 83.214 L 518 82.773 518 63.823 L 518 44.873 514.809 45.187 C 511.901 45.472, 511.509 45.934, 510.372 50.409 C 508.172 59.076, 507.233 59.500, 490.224 59.500 L 475.500 59.500 475.500 35.500 L 475.500 11.500 491.500 11.605 C 503.612 11.684, 508.396 12.090, 511.188 13.278 C 515.533 15.126, 520.092 21.032, 522.639 28.116 C 524.420 33.069, 524.541 33.174, 527.855 32.636 C 529.721 32.333, 531.454 31.880, 531.705 31.628 C 531.957 31.377, 530.776 25.108, 529.081 17.697 C 527.387 10.286, 526 3.948, 526 3.611 C 526 3.275, 508.225 3, 486.500 3 L 447 3 447 6.500 M 593 6.421 C 593 10.091, 592.729 9.939, 602.214 11.570 C 604.257 11.922, 606.507 12.906, 607.214 13.759 C 609.133 16.071, 609.089 114.983, 607.168 117.298 C 606.436 118.180, 603.736 119.187, 601.168 119.535 C 593.541 120.569, 593 120.870, 593 124.067 L 593 127 617 127 L 641 127 641 124.117 C 641 120.915, 639.249 120.037, 632.815 120.014 C 628.610 119.998, 623.897 118.435, 622.786 116.687 C 622.370 116.034, 622.024 105.540, 622.015 93.367 C 622 71.253, 622.002 71.233, 624.250 70.630 C 627.786 69.683, 635.121 69.908, 639.500 71.099 C 647.485 73.270, 649.844 76.863, 659.945 102.245 C 667.117 120.269, 670.044 124.875, 676.226 127.867 C 686.236 132.713, 703.721 127.998, 701.515 121.047 C 700.917 119.164, 700.325 119.049, 694.155 119.622 C 687.807 120.212, 687.263 120.092, 684.065 117.401 C 680.540 114.435, 677.567 108.567, 670.105 89.847 C 665.359 77.941, 660.732 71.678, 654.685 68.970 L 650.758 67.212 654.129 66.483 C 663.375 64.483, 672.019 57.693, 676.748 48.717 C 679.161 44.136, 679.495 42.402, 679.481 34.500 C 679.467 26.406, 679.165 24.954, 676.483 20.077 C 671.557 11.121, 662.608 6.165, 647.594 4.076 C 643.338 3.484, 629.313 3, 616.428 3 L 593 3 593 6.421 M 797.120 5.204 C 795.140 10.453, 780 53.270, 780 53.620 C 780 53.829, 782.213 54, 784.917 54 L 789.834 54 793.934 41.750 C 796.190 35.013, 799.089 26.611, 800.377 23.080 L 802.720 16.659 808.943 35.330 L 815.166 54 821.995 54 L 828.824 54 823.799 39.750 C 821.036 31.912, 817.099 20.550, 815.052 14.500 L 811.330 3.500 804.657 3.204 C 798.485 2.930, 797.920 3.080, 797.120 5.204 M 912 6.500 C 912 8.425, 912.142 10, 912.316 10 C 912.490 10, 915.303 10.489, 918.566 11.088 C 928.823 12.968, 928 8.269, 928 64.932 C 928 120.172, 928.241 118.218, 921.274 119.418 C 911.905 121.032, 912 120.984, 912 124.079 L 912 127 954 127 C 977.100 127, 996.001 126.662, 996.001 126.250 C 996.002 125.838, 996.901 118.525, 998 110 C 1000.634 89.561, 1000.739 90.815, 996.422 91.190 C 992.901 91.495, 992.792 91.640, 989.501 100.406 C 985.894 110.016, 983.913 113.228, 979.618 116.438 C 977.117 118.307, 975.183 118.531, 958.930 118.831 L 941 119.162 941 67.692 C 941 8.068, 940.213 12.531, 951 10.977 C 954.575 10.462, 958.063 10.031, 958.750 10.020 C 959.508 10.008, 960 8.623, 960 6.500 L 960 3 936 3 L 912 3 912 6.500 M 1046 6.421 C 1046 10.091, 1045.729 9.939, 1055.214 11.570 C 1057.257 11.922, 1059.507 12.906, 1060.214 13.757 C 1061.197 14.939, 1061.626 25.119, 1062.033 56.902 C 1062.609 101.898, 1062.668 102.402, 1068.553 112.613 C 1074.989 123.779, 1088.650 129.940, 1107.066 129.983 C 1132.973 130.042, 1147.591 119.314, 1153.609 95.824 C 1154.906 90.762, 1155.327 82.117, 1155.720 52.500 C 1155.991 32.150, 1156.602 14.765, 1157.079 13.866 C 1157.556 12.968, 1159.645 11.940, 1161.723 11.582 C 1171.285 9.935, 1171 10.094, 1171 6.421 L 1171 3 1150 3 L 1129 3 1129 6.455 C 1129 9.676, 1129.253 9.949, 1132.750 10.495 C 1140.901 11.769, 1143.969 13.027, 1144.548 15.334 C 1144.860 16.577, 1144.963 34.222, 1144.778 54.547 C 1144.455 90.008, 1144.348 91.779, 1142.133 98.403 C 1139.148 107.330, 1132.115 114.762, 1123.968 117.597 C 1116.589 120.165, 1101.635 120.169, 1094.148 117.605 C 1086.962 115.143, 1080.936 109.174, 1077.892 101.500 C 1075.547 95.589, 1075.507 94.911, 1075.203 55.783 C 1075.002 29.961, 1075.253 15.395, 1075.920 14.149 C 1076.521 13.027, 1078.511 11.963, 1080.723 11.582 C 1090.285 9.935, 1090 10.094, 1090 6.421 L 1090 3 1068 3 L 1046 3 1046 6.421 M 622 36.900 L 622 62 627.250 62.159 C 642.903 62.632, 651.508 60.338, 658.595 53.806 C 667.511 45.588, 668.661 29.379, 660.953 20.599 C 655.775 14.701, 649.343 12.637, 634.750 12.190 L 622 11.799 622 36.900 M 157.591 90.752 C 153.791 101.613, 149.864 112.149, 148.864 114.165 C 147.059 117.803, 144.094 119.449, 138 120.194 C 135.989 120.440, 135.439 121.135, 135.187 123.750 L 134.873 127 154.937 127 L 175 127 175 124.067 C 175 120.860, 174.476 120.573, 166.697 119.515 C 158.743 118.433, 158.759 117.756, 167.341 92.731 L 174.793 71 169.647 71.002 L 164.500 71.004 157.591 90.752 M 212 71.898 C 212 72.393, 215.170 81.946, 219.044 93.128 C 222.919 104.310, 225.956 114.579, 225.794 115.947 C 225.490 118.519, 224.556 118.903, 214.750 120.485 C 211.399 121.026, 211 121.405, 211 124.045 L 211 127 232.563 127 L 254.127 127 253.813 123.809 C 253.527 120.891, 253.073 120.511, 248.500 119.352 C 245.750 118.656, 242.825 117.248, 242 116.224 C 241.175 115.201, 237.125 104.607, 233 92.683 L 225.500 71.003 218.750 71.001 C 215.037 71.001, 212 71.404, 212 71.898 M 773.604 71.832 C 773.321 72.289, 769.873 81.851, 765.941 93.082 C 762.009 104.312, 758.180 114.472, 757.431 115.661 C 756.155 117.689, 753.228 118.995, 746.750 120.429 C 744.501 120.927, 744 121.581, 744 124.019 L 744 127 764.500 127 L 785 127 785 124.079 C 785 120.956, 784.943 120.929, 775.237 119.463 C 767.960 118.365, 767.990 117.695, 776.415 92.988 L 783.913 71 779.015 71 C 776.322 71, 773.887 71.374, 773.604 71.832 M 821.571 73.250 C 821.959 74.487, 825.324 84.456, 829.048 95.402 C 832.773 106.348, 835.575 115.945, 835.274 116.729 C 834.596 118.495, 830.797 120, 827.017 120 C 822.422 120, 821 120.971, 821 124.107 L 821 127 842 127 L 863 127 863 123.500 C 863 120.835, 862.582 119.999, 861.250 119.994 C 860.288 119.991, 857.811 119.520, 855.746 118.946 C 850.996 117.627, 850.272 116.191, 841.529 90.750 L 834.741 71 827.803 71 C 821.066 71, 820.886 71.065, 821.571 73.250" fill="#FDF7EE" fill-rule="evenodd" />
</svg>
