<?xml version="1.0" encoding="UTF-8"?>
<svg xmlns="http://www.w3.org/2000/svg" viewBox="0 0 1921 1080" width="1921" height="1080" role="img" aria-label="Lateralus (stacked lockup) (glow)">
  <defs>
    <linearGradient id="goldenGlow" x1="0%" y1="0%" x2="100%" y2="100%">
      <stop offset="0%" stop-color="#FDF7EE" />
      <stop offset="38%" stop-color="#F99C1C" />
      <stop offset="78%" stop-color="#260600" />
      <stop offset="100%" stop-color="#292827" />
    </linearGradient>
  </defs>
  <path d="M 821.462 140.250 C 821.201 140.938, 821.103 252.425, 821.244 388 L 821.500 634.500 960.250 634.754 L 1099 635.007 1099 387.004 L 1099 139 960.469 139 C 850.563 139, 821.839 139.258, 821.462 140.250 M 836.250 167.525 L 843 173.983 843 387 L 843 600.017 836.250 606.475 L 829.500 612.933 959.973 612.967 L 1090.446 613 1083.723 606.225 L 1077 599.450 1077 386.883 L 1077 174.317 1083.500 168.075 C 1087.075 164.643, 1090 161.646, 1090 161.417 C 1090 161.188, 1031.388 161.015, 959.750 161.033 L 829.500 161.067 836.250 167.525 M 1693.108 784.019 C 1686.584 785.393, 1676.803 790.280, 1672.136 794.496 C 1669.872 796.541, 1666.576 801.147, 1664.812 804.731 C 1658.865 816.810, 1659.888 834.163, 1667.171 844.748 C 1672.589 852.623, 1683.217 858.840, 1703.500 865.998 C 1724.880 873.544, 1732.549 878.589, 1736.820 887.917 C 1740.102 895.086, 1740.310 906.264, 1737.288 913.055 C 1734.426 919.485, 1727.390 925.540, 1720.425 927.565 C 1711.254 930.231, 1698.977 929.248, 1690.727 925.186 C 1681.179 920.486, 1673.619 911.989, 1667.966 899.605 L 1663.500 889.821 1659.667 890.326 C 1657.559 890.604, 1655.701 890.982, 1655.537 891.166 C 1655.315 891.416, 1659.562 937.408, 1659.931 938.750 C 1659.969 938.888, 1661.558 939, 1663.461 939 C 1667.155 939, 1667.395 938.571, 1669.504 928.222 L 1670.171 924.943 1673.629 927.979 C 1682.216 935.519, 1696.241 940.338, 1709.500 940.304 C 1729.876 940.252, 1743.520 932.333, 1751.374 916 C 1754.362 909.787, 1754.500 908.948, 1754.500 897 C 1754.500 885.346, 1754.311 884.116, 1751.712 878.822 C 1746.106 867.407, 1734.024 859.081, 1712 851.456 C 1684.935 842.085, 1675.926 832.969, 1677.263 816.309 C 1678.346 802.826, 1687.284 794.994, 1702.503 794.195 C 1720.585 793.246, 1732.124 801.103, 1740.070 819.776 L 1742.931 826.500 1747.174 826.208 C 1749.507 826.048, 1751.531 825.802, 1751.672 825.661 C 1751.949 825.384, 1748.322 791.558, 1747.446 786.250 C 1746.950 783.243, 1746.623 783, 1743.085 783 L 1739.260 783 1738.084 788.979 L 1736.907 794.959 1731.665 791.478 C 1723.923 786.338, 1715.882 783.815, 1706 783.427 C 1701.325 783.244, 1695.524 783.510, 1693.108 784.019 M 165.193 790.224 L 165.500 794.449 172.870 795.678 C 185.154 797.726, 184 790.848, 184 862 C 184 933.408, 185.195 926.489, 172.548 928.311 L 165 929.398 165 933.699 L 165 938 216 938 C 244.050 938, 267.006 937.663, 267.013 937.250 C 267.021 936.837, 268.146 927.538, 269.513 916.584 C 270.881 905.630, 272 895.842, 272 894.834 C 272 893.337, 271.202 893, 267.658 893 C 263.414 893, 263.288 893.095, 262.062 897.250 C 257.406 913.029, 250.161 924.028, 243.137 925.979 C 241.137 926.534, 230.613 926.991, 219.750 926.994 L 200 927 200 866.125 C 200 832.644, 200.285 803.824, 200.634 802.082 C 201.418 798.159, 204.442 796.495, 212.500 795.553 C 222.865 794.341, 223 794.269, 223 789.892 L 223 786 193.943 786 L 164.885 786 165.193 790.224 M 394.484 787.250 C 394.235 787.938, 389.339 801.775, 383.605 818 L 373.179 847.500 378.735 847.804 C 381.791 847.972, 384.620 847.747, 385.021 847.304 C 385.422 846.862, 389.007 836.673, 392.987 824.662 C 396.968 812.652, 400.568 803.202, 400.987 803.662 C 401.407 804.123, 404.994 814.288, 408.958 826.250 L 416.166 848 424.083 848 C 428.437 848, 432 847.663, 431.999 847.250 C 431.999 846.837, 427.274 833.009, 421.499 816.520 C 415.725 800.031, 411 786.419, 411 786.270 C 411 786.122, 407.386 786, 402.969 786 C 397.452 786, 394.795 786.391, 394.484 787.250 M 513.149 807.078 C 510.769 818.670, 508.975 828.278, 509.161 828.428 C 509.347 828.578, 511.352 829.155, 513.615 829.710 L 517.729 830.719 520.023 824.109 C 523.177 815.019, 528.324 804.941, 531.162 802.298 C 535.694 798.077, 540.766 796.773, 554.750 796.230 L 568 795.716 568 858.747 C 568 918.219, 567.897 921.905, 566.179 924.027 C 564.732 925.814, 562.321 926.611, 554.429 927.910 L 544.500 929.544 544.193 933.772 L 543.885 938 576.443 938 L 609 938 609 934.067 C 609 929.530, 609.255 929.662, 597 927.843 C 590.639 926.899, 587.934 926.017, 586.250 924.336 L 584 922.091 584 858.906 L 584 795.720 597.750 796.227 C 613.625 796.813, 616.797 797.807, 622.320 803.927 C 626.308 808.347, 628.703 813.086, 632.464 824 C 634.846 830.912, 635.509 831.278, 641.515 828.994 L 643.667 828.176 639.584 807.090 L 635.500 786.004 576.488 786.002 L 517.477 786 513.149 807.078 M 709.193 790.227 C 709.496 794.399, 709.559 794.464, 714 795.191 C 716.475 795.595, 719.948 796.186, 721.718 796.502 C 728.375 797.694, 728 793.790, 728 861.916 C 728 933.420, 729.196 926.489, 716.548 928.311 L 709 929.398 709 933.699 L 709 938 761 938 C 791.696 938, 813 937.626, 813 937.087 C 813 936.585, 814.125 927.996, 815.500 918 C 816.875 908.004, 818 899.615, 818 899.358 C 818 899.101, 815.912 899.028, 813.359 899.195 L 808.718 899.500 807.349 905 C 806.597 908.025, 804.738 912.965, 803.219 915.979 C 800.853 920.672, 799.611 921.890, 794.550 924.479 L 788.644 927.500 766.572 927.500 L 744.500 927.500 744.236 896.750 L 743.971 866 760.236 866.056 C 770.063 866.091, 777.885 866.585, 780 867.306 C 783.951 868.654, 786.844 873.417, 787.732 880.037 C 788.284 884.154, 789.112 884.613, 793.750 883.370 L 796 882.767 796 859.883 L 796 837 792.469 837 C 790.509 837, 788.771 837.556, 788.564 838.250 C 784.752 851.008, 784.505 851.497, 781 853.248 C 778.086 854.704, 774.693 854.997, 760.750 854.998 L 744 855 744 825.397 L 744 795.795 764.250 796.153 C 783.665 796.497, 784.685 796.615, 789 799.019 C 794.236 801.936, 798.963 808.451, 802.115 817.094 C 803.745 821.564, 804.684 822.926, 805.892 822.570 C 806.776 822.309, 808.737 821.800, 810.250 821.439 C 811.763 821.078, 813 820.272, 813 819.648 C 813 819.024, 811.326 811.198, 809.279 802.257 L 805.559 786 757.222 786 L 708.885 786 709.193 790.227 M 887.188 790.126 L 887.500 794.449 894.937 795.689 C 907.648 797.809, 906.500 791.346, 906.500 860.778 C 906.500 893.625, 906.173 921.660, 905.774 923.079 C 904.852 926.352, 902.020 927.625, 893.667 928.519 L 887 929.233 887 933.616 L 887 938 916.500 938 L 946 938 946 933.606 L 946 929.212 936.925 928.494 C 929.541 927.910, 927.353 927.348, 925.175 925.476 L 922.500 923.176 922.500 895.838 L 922.500 868.500 933 868.224 C 942.269 867.981, 944.026 868.215, 947.986 870.224 C 950.453 871.476, 953.881 874.370, 955.605 876.656 C 957.331 878.946, 962.447 890.175, 966.994 901.656 C 975.906 924.156, 977.672 927.728, 982.407 932.838 C 987.374 938.198, 992.456 940.303, 1000.618 940.383 C 1006.666 940.442, 1008.619 939.996, 1013.618 937.417 C 1019.062 934.607, 1019.488 934.139, 1019.345 931.119 C 1019.259 929.324, 1018.958 927.624, 1018.674 927.341 C 1018.391 927.057, 1015.678 927.340, 1012.647 927.969 C 1008.649 928.799, 1006.039 928.818, 1003.141 928.038 C 996.256 926.184, 993.916 922.355, 982.341 894 C 974.262 874.209, 971.691 870.655, 962 865.878 C 959.608 864.699, 958.975 863.995, 960 863.654 C 960.825 863.380, 963.862 862.409, 966.748 861.498 C 973.809 859.268, 982.895 852.397, 986.771 846.357 C 991.633 838.780, 993.193 833.468, 993.190 824.500 C 993.184 805.726, 983.682 794.375, 963.325 788.822 C 956.235 786.888, 952.276 786.646, 921.188 786.245 L 886.875 785.802 887.188 790.126 M 1131.460 802.212 C 1128.267 811.170, 1123.318 825.025, 1120.462 833 L 1115.267 847.500 1120.264 847.807 C 1123.013 847.976, 1125.765 847.916, 1126.381 847.675 C 1126.996 847.434, 1130.875 837.288, 1135 825.127 C 1139.125 812.966, 1142.725 803.023, 1143 803.031 C 1143.275 803.038, 1146.783 813.160, 1150.795 825.522 L 1158.090 848 1166.045 848 C 1170.420 848, 1174 847.582, 1174 847.070 C 1174 846.559, 1169.327 832.722, 1163.615 816.320 L 1153.230 786.500 1145.247 786.212 L 1137.263 785.923 1131.460 802.212 M 1277 790.362 L 1277 794.725 1282.313 795.349 C 1290.116 796.266, 1294.010 797.895, 1295.071 800.688 C 1296.418 804.228, 1296.290 918.871, 1294.935 922.756 C 1293.698 926.306, 1290.930 927.626, 1282.750 928.568 L 1277 929.230 1277 933.615 L 1277 938 1327.500 938 C 1355.275 938, 1378.035 937.888, 1378.077 937.750 C 1378.120 937.612, 1379.382 927.665, 1380.882 915.643 C 1383.830 892.005, 1383.904 892.585, 1378.022 893.180 C 1374.979 893.487, 1374.695 893.920, 1370.916 904 C 1366.062 916.947, 1362.791 921.834, 1357.025 924.750 C 1352.847 926.863, 1351.343 927, 1332.288 927 L 1312 927 1312 863.655 C 1312 789.969, 1310.578 797.614, 1324.689 795.449 C 1329.535 794.706, 1333.612 794.076, 1333.750 794.049 C 1333.888 794.022, 1334 792.200, 1334 790 L 1334 786 1305.500 786 L 1277 786 1277 790.362 M 1439.193 790.224 L 1439.500 794.449 1446.870 795.678 C 1458.819 797.670, 1457.766 792.856, 1458.274 847.830 C 1458.654 888.882, 1458.958 896.472, 1460.464 902.500 C 1467.065 928.924, 1483.232 940.228, 1514.500 940.282 C 1546.137 940.336, 1563.482 927.263, 1570.598 898 C 1572.175 891.512, 1572.494 884.399, 1572.961 845.284 C 1573.430 805.974, 1573.705 799.863, 1575.073 798.497 C 1575.938 797.633, 1579.988 796.369, 1584.073 795.687 L 1591.500 794.449 1591.807 790.224 L 1592.115 786 1566.500 786 L 1540.885 786 1541.193 790.224 L 1541.500 794.449 1549 795.692 C 1560.860 797.658, 1560.003 793.861, 1559.983 844.361 C 1559.969 878.154, 1559.652 888.981, 1558.517 894.335 C 1554.626 912.698, 1544.861 923.457, 1528.855 927.016 C 1520.688 928.832, 1504.020 927.844, 1496.921 925.122 C 1486.150 920.994, 1479.744 913.009, 1476.289 899.404 C 1474.745 893.322, 1474.534 886.999, 1474.518 846.287 C 1474.502 805.147, 1474.677 799.897, 1476.108 798.464 C 1477.022 797.550, 1481.120 796.331, 1485.608 795.640 L 1493.500 794.425 1493.807 790.213 L 1494.115 786 1466.500 786 L 1438.885 786 1439.193 790.224 M 922.510 797.113 C 922.213 797.888, 922.089 811.793, 922.235 828.012 L 922.500 857.500 936.500 857.454 C 948.776 857.414, 951.233 857.119, 956.449 855.058 C 971.711 849.028, 979.586 833.679, 975.544 817.841 C 971.774 803.068, 961.591 797.486, 936.276 796.315 C 925.408 795.812, 922.955 795.954, 922.510 797.113 M 365.116 870.250 C 364.657 871.487, 360.558 883.075, 356.007 896 C 351.456 908.925, 347.110 920.730, 346.349 922.233 C 344.601 925.688, 340.728 927.702, 334.156 928.574 L 329 929.258 329 933.629 L 329 938 354 938 L 379 938 379 933.616 L 379 929.233 372.299 928.515 C 363.657 927.590, 361.188 926.598, 360.478 923.767 C 360.028 921.977, 371.682 885.169, 377.738 869.250 C 378.087 868.334, 376.575 868, 372.082 868 C 366.637 868, 365.857 868.252, 365.116 870.250 M 423 868.371 C 423 868.620, 427.050 880.729, 432 895.281 C 436.950 909.833, 441 922.463, 441 923.347 C 441 925.934, 436.987 927.785, 429.750 928.534 L 423 929.233 423 933.616 L 423 938 448.500 938 L 474 938 474 933.572 L 474 929.143 468.382 927.886 C 465.291 927.195, 461.887 925.919, 460.816 925.052 C 459.601 924.068, 455.228 913.141, 449.184 895.988 L 439.500 868.500 431.250 868.210 C 426.712 868.050, 423 868.122, 423 868.371 M 1107.522 869.750 C 1107.141 870.712, 1103.071 882.155, 1098.478 895.179 C 1093.884 908.202, 1089.414 920.232, 1088.546 921.912 C 1086.596 925.682, 1082.876 927.682, 1076.156 928.574 L 1071 929.258 1071 933.629 L 1071 938 1096 938 L 1121 938 1121 933.601 L 1121 929.203 1113.837 928.484 C 1108.355 927.933, 1106.143 927.234, 1104.415 925.506 C 1101.513 922.604, 1101.639 922.045, 1111.955 892.299 C 1116.380 879.538, 1120 868.851, 1120 868.549 C 1120 868.247, 1117.348 868, 1114.107 868 C 1109.425 868, 1108.072 868.360, 1107.522 869.750 M 1165 868.361 C 1165 868.559, 1169.050 880.522, 1174 894.945 C 1178.950 909.368, 1183 922.020, 1183 923.061 C 1183 925.926, 1179.233 927.759, 1171.750 928.534 L 1165 929.233 1165 933.616 L 1165 938 1190.500 938 L 1216 938 1216 933.519 C 1216 929.448, 1215.749 928.982, 1213.250 928.419 C 1202.648 926.031, 1202.987 926.256, 1200.064 919.687 C 1198.550 916.284, 1193.808 903.263, 1189.527 890.750 L 1181.742 868 1173.371 868 C 1168.767 868, 1165 868.162, 1165 868.361" fill="url(#goldenGlow)" fill-rule="evenodd" />
</svg>
