<?xml version="1.0" encoding="UTF-8"?>
<svg xmlns="http://www.w3.org/2000/svg" viewBox="0 0 1921 687" width="1921" height="687" role="img" aria-label="Lateralus (inline lockup) (glow)">
  <defs>
    <linearGradient id="goldenGlow" x1="0%" y1="0%" x2="100%" y2="100%">
      <stop offset="0%" stop-color="#FDF7EE" />
      <stop offset="38%" stop-color="#F99C1C" />
      <stop offset="78%" stop-color="#260600" />
      <stop offset="100%" stop-color="#292827" />
    </linearGradient>
  </defs>
  <path d="M 133 343.500 L 133 530 238 530 L 343 530 343 343.500 L 343 157 238 157 L 133 157 133 343.500 M 144.784 178.281 L 150 183.563 150 343.497 L 150 503.431 145.288 508.216 L 140.575 513 238 513 L 335.425 513 330.712 508.216 L 326 503.431 326 343.424 L 326 183.416 330.500 179 C 332.975 176.571, 335 174.227, 335 173.792 C 335 173.356, 291.028 173, 237.284 173 L 139.568 173 144.784 178.281 M 1732.803 280.399 C 1723.412 282.928, 1715.235 290.202, 1711.896 299 C 1710.204 303.458, 1709.886 306.110, 1710.217 313 C 1711.045 330.185, 1718.293 337.377, 1744 346.516 C 1767.822 354.986, 1773.928 360.706, 1773.978 374.601 C 1774.018 385.577, 1770.660 391.551, 1762.099 395.740 C 1755.291 399.071, 1745.319 399.429, 1737.204 396.633 C 1729.507 393.981, 1721.183 385.913, 1716.622 376.680 C 1714.630 372.649, 1713 368.822, 1713 368.175 C 1713 367.468, 1711.384 367, 1708.939 367 L 1704.877 367 1705.422 371.250 C 1705.722 373.587, 1706.432 380.675, 1707 387 C 1708.840 407.491, 1708.717 407, 1711.990 407 C 1714.661 407, 1714.937 406.623, 1716 401.500 C 1716.628 398.475, 1717.334 396, 1717.569 396 C 1717.803 396, 1720.224 397.601, 1722.948 399.558 C 1731.065 405.390, 1737.942 407.439, 1749.500 407.472 C 1766.162 407.519, 1776.178 402.284, 1782.885 390.024 C 1786.060 384.220, 1786.469 382.598, 1786.828 374.378 C 1787.369 362.027, 1785.484 356.334, 1778.597 349.520 C 1772.686 343.671, 1765.107 339.459, 1752.597 335.071 C 1728.361 326.570, 1721.161 318.749, 1723.459 303.422 C 1725.271 291.342, 1740.071 284.672, 1755.500 288.982 C 1762.545 290.950, 1770.611 299.162, 1774.467 308.293 C 1777.280 314.952, 1777.397 315.072, 1780.418 314.426 C 1782.113 314.063, 1783.682 313.600, 1783.904 313.396 C 1784.126 313.192, 1783.495 305.369, 1782.501 296.013 L 1780.694 279 1777.359 279 C 1774.238 279, 1773.982 279.258, 1773.380 283.022 C 1773.027 285.234, 1772.422 287.239, 1772.036 287.478 C 1771.650 287.716, 1769.660 286.774, 1767.614 285.384 C 1758.824 279.411, 1744.235 277.322, 1732.803 280.399 M 482 284.421 C 482 288.093, 481.716 287.935, 491.274 289.582 C 498.236 290.781, 498 288.888, 498 343.500 C 498 398.112, 498.236 396.219, 491.274 397.418 C 481.905 399.032, 482 398.984, 482 402.079 L 482 405 523.835 405 L 565.670 405 567.395 390.750 C 568.343 382.913, 569.380 374.782, 569.698 372.681 L 570.278 368.863 566.436 369.181 L 562.595 369.500 559.048 378.808 C 554.813 389.920, 551.373 394.525, 546.243 395.949 C 544.185 396.521, 535.413 396.991, 526.750 396.994 L 511 397 511.015 345.250 C 511.024 316.788, 511.370 292.966, 511.786 292.313 C 512.907 290.550, 516.745 289.335, 523.750 288.526 L 530 287.804 530 284.402 L 530 281 506 281 L 482 281 482 284.421 M 670.599 281.841 C 670.014 282.786, 653 330.842, 653 331.547 C 653 331.796, 655.138 331.997, 657.750 331.993 L 662.500 331.987 668.876 313.453 C 672.383 303.259, 675.471 295.137, 675.737 295.404 C 676.004 295.671, 678.800 303.902, 681.949 313.695 L 687.675 331.500 694.337 331.796 C 698.002 331.958, 701 331.753, 701 331.339 C 701 330.925, 697.107 319.429, 692.348 305.793 L 683.697 281 677.407 281 C 673.948 281, 670.884 281.378, 670.599 281.841 M 768.072 296.750 C 766.299 305.413, 764.634 313.268, 764.370 314.207 C 764.018 315.465, 764.763 316.153, 767.196 316.818 C 769.013 317.315, 770.798 317.447, 771.163 317.111 C 771.527 316.775, 773.262 312.749, 775.018 308.164 C 778.527 299.005, 782.736 293.426, 787.702 291.351 C 789.755 290.493, 794.964 290, 801.968 290 L 813 290 813 341.045 L 813 392.091 810.687 394.404 C 809.207 395.884, 806.596 396.961, 803.437 397.396 C 793.261 398.797, 793 398.914, 793 402.079 L 793 405 819.500 405 L 846 405 846 402.045 C 846 399.407, 845.598 399.025, 842.250 398.475 C 830.802 396.597, 827.940 395.756, 826.997 393.994 C 826.372 392.826, 826 373.091, 826 341.066 L 826 290 836.935 290 C 842.949 290, 849.137 290.479, 850.685 291.064 C 856.811 293.378, 861.739 300.344, 865.497 312 C 866.472 315.025, 867.347 317.600, 867.441 317.723 C 867.535 317.845, 869.296 317.481, 871.354 316.913 C 874.167 316.136, 874.973 315.460, 874.598 314.190 C 874.323 313.260, 872.951 306.425, 871.548 299 C 870.145 291.575, 868.764 284.488, 868.479 283.250 L 867.962 281 819.628 281 L 771.295 281 768.072 296.750 M 929 284.500 C 929 286.425, 929.142 288, 929.316 288 C 931.610 288, 941.811 290.441, 942.750 291.215 C 943.720 292.015, 944 303.747, 944 343.673 L 944 395.102 940.532 396.551 C 938.625 397.348, 935.962 398, 934.614 398 C 930.432 398, 929 399.047, 929 402.107 L 929 405 971.500 405 C 998.158 405, 1014 404.640, 1014 404.034 C 1014 402.872, 1016.788 381.837, 1017.551 377.250 C 1018.081 374.059, 1018.022 374, 1014.295 374.001 C 1010.502 374.003, 1010.499 374.006, 1008.669 380.251 C 1006.150 388.854, 1003.657 392.503, 998.647 394.929 C 994.788 396.797, 992.538 397, 975.684 397 L 957 397 957 372 L 957 347 971.050 347 C 989.766 347, 990.866 347.595, 993.387 359.080 C 993.873 361.297, 994.378 361.598, 996.976 361.217 L 1000 360.773 1000 341.823 L 1000 322.873 996.854 323.187 C 994.006 323.470, 993.594 323.957, 992.486 328.341 C 990.294 337.018, 989.228 337.500, 972.224 337.500 L 957.500 337.500 957.500 313.500 L 957.500 289.500 973 289.548 C 982.745 289.578, 989.874 290.064, 992.200 290.859 C 997.100 292.532, 1001.224 297.409, 1004.128 304.963 C 1006.414 310.912, 1006.607 311.114, 1009.469 310.549 C 1011.102 310.226, 1012.771 309.629, 1013.178 309.222 C 1013.585 308.815, 1012.516 302.298, 1010.802 294.741 L 1007.686 281 968.343 281 L 929 281 929 284.500 M 1075 284.421 C 1075 288.091, 1074.729 287.939, 1084.214 289.570 C 1086.257 289.922, 1088.507 290.906, 1089.214 291.759 C 1091.133 294.071, 1091.089 392.983, 1089.168 395.298 C 1088.436 396.180, 1085.736 397.187, 1083.168 397.535 C 1075.541 398.569, 1075 398.870, 1075 402.067 L 1075 405 1099 405 L 1123 405 1123 402.061 C 1123 399.307, 1122.702 399.085, 1118.250 398.517 C 1108.691 397.299, 1107.035 396.892, 1105.532 395.389 C 1104.247 394.105, 1104 390.252, 1104 371.536 C 1104 346.348, 1103.416 347.996, 1112.332 348.006 C 1122.806 348.017, 1129.059 351.371, 1133.044 359.116 C 1134.067 361.106, 1137.661 369.656, 1141.029 378.116 C 1150.647 402.272, 1154.365 406.679, 1166.019 407.735 C 1175.635 408.607, 1184.652 404.211, 1183.363 399.280 C 1182.839 397.278, 1182.347 397.171, 1176.083 397.696 C 1165.024 398.623, 1163.780 396.908, 1148.706 359.927 C 1146.658 354.902, 1141.189 348.987, 1136.756 347.002 L 1132.995 345.318 1137.247 344.072 C 1146.774 341.282, 1154.284 335.198, 1158.781 326.628 C 1161.084 322.239, 1161.474 320.274, 1161.486 313 C 1161.498 305.699, 1161.105 303.696, 1158.701 298.801 C 1154.021 289.270, 1144.679 284.025, 1128.845 282.040 C 1124.284 281.468, 1110.303 281, 1097.776 281 L 1075 281 1075 284.421 M 1279.480 282.250 C 1276.895 289.323, 1262 331.445, 1262 331.684 C 1262 331.858, 1264.213 332, 1266.917 332 L 1271.834 332 1278 313.500 C 1281.391 303.325, 1284.316 295, 1284.500 295 C 1284.684 295, 1287.609 303.325, 1291 313.500 L 1297.166 332 1303.936 332 L 1310.707 332 1304.350 313.750 C 1300.854 303.712, 1296.824 292.238, 1295.395 288.250 L 1292.797 281 1286.367 281 C 1282.134 281, 1279.781 281.427, 1279.480 282.250 M 1394 284.500 C 1394 286.425, 1394.112 288.003, 1394.250 288.006 C 1394.388 288.009, 1397.150 288.446, 1400.388 288.976 C 1410.818 290.684, 1410 286.041, 1410 343.500 C 1410 400.959, 1410.818 396.316, 1400.388 398.024 C 1397.150 398.554, 1394.388 398.991, 1394.250 398.994 C 1394.112 398.997, 1394 400.350, 1394 402 L 1394 405 1436 405 C 1459.100 405, 1478.005 404.663, 1478.012 404.250 C 1478.018 403.837, 1478.918 396.327, 1480.012 387.560 C 1481.105 378.794, 1482 371.004, 1482 370.250 C 1482 369.287, 1480.937 368.972, 1478.422 369.190 C 1474.901 369.495, 1474.792 369.640, 1471.501 378.406 C 1467.894 388.016, 1465.913 391.228, 1461.618 394.438 C 1459.117 396.307, 1457.183 396.531, 1440.930 396.831 L 1423 397.162 1423 345.692 C 1423 286.068, 1422.213 290.531, 1433 288.977 C 1436.575 288.462, 1440.063 288.031, 1440.750 288.020 C 1441.508 288.008, 1442 286.623, 1442 284.500 L 1442 281 1418 281 L 1394 281 1394 284.500 M 1528 284.421 C 1528 288.091, 1527.729 287.939, 1537.214 289.570 C 1539.257 289.922, 1541.507 290.906, 1542.214 291.757 C 1543.195 292.937, 1543.635 303.164, 1544.069 334.902 C 1544.612 374.594, 1544.740 376.775, 1546.850 382.500 C 1551.260 394.466, 1559.216 402.136, 1571 405.783 C 1574.978 407.014, 1580.097 407.487, 1589.500 407.492 C 1600.466 407.499, 1603.517 407.144, 1609 405.225 C 1625.879 399.316, 1634.377 386.706, 1636.922 363.789 C 1637.515 358.449, 1638 340.166, 1638 323.162 C 1638 297.934, 1638.257 292.032, 1639.395 291.087 C 1640.424 290.233, 1649.779 288.075, 1652.750 288.006 C 1652.888 288.003, 1653 286.425, 1653 284.500 L 1653 281 1632 281 L 1611 281 1611 284.412 C 1611 287.656, 1611.209 287.857, 1615.250 288.482 C 1622.829 289.655, 1625.967 291.022, 1626.567 293.411 C 1626.878 294.651, 1626.968 312.504, 1626.765 333.083 C 1626.411 369.102, 1626.312 370.733, 1624.110 376.740 C 1620.979 385.283, 1614.612 392.217, 1607.208 395.147 C 1602.532 396.997, 1599.602 397.400, 1591 397.372 C 1573.471 397.317, 1565.158 392.512, 1559.876 379.381 C 1557.545 373.587, 1557.505 372.902, 1557.202 333.166 C 1556.978 303.774, 1557.208 292.455, 1558.048 291.442 C 1558.682 290.678, 1560.843 289.786, 1562.850 289.459 C 1572.310 287.920, 1572 288.090, 1572 284.421 L 1572 281 1550 281 L 1528 281 1528 284.421 M 1104 314.907 L 1104 339.815 1109.750 340.215 C 1124.140 341.216, 1135.399 337.729, 1142.247 330.148 C 1150.761 320.724, 1149.912 304.019, 1140.526 296.282 C 1135.208 291.898, 1127.399 290, 1114.684 290 L 1104 290 1104 314.907 M 639.605 368.759 C 629.709 397.095, 630.392 396.073, 619.750 398.429 C 617.501 398.927, 617 399.581, 617 402.019 L 617 405 637 405 L 657 405 657 402.019 C 657 398.845, 656.725 398.701, 648.569 397.598 C 646.407 397.306, 643.982 396.410, 643.179 395.607 C 641.355 393.783, 641.663 392.573, 650.266 367.750 L 656.764 349 651.632 349.009 L 646.500 349.018 639.605 368.759 M 694 349.797 C 694 350.235, 697.171 359.774, 701.047 370.995 C 704.923 382.216, 707.961 392.545, 707.797 393.948 C 707.489 396.596, 706.350 397.067, 696.750 398.522 C 693.391 399.031, 693 399.399, 693 402.045 L 693 405 714.563 405 L 736.127 405 735.813 401.809 C 735.527 398.891, 735.073 398.511, 730.500 397.352 C 727.750 396.656, 724.812 395.240, 723.972 394.207 C 723.132 393.173, 719.082 382.583, 714.972 370.672 L 707.500 349.018 700.750 349.009 C 697.038 349.004, 694 349.359, 694 349.797 M 1255.459 350.250 C 1255.196 350.938, 1251.616 360.950, 1247.503 372.500 C 1239.920 393.797, 1238.405 396.480, 1233.374 397.513 C 1232.068 397.781, 1229.875 398.234, 1228.500 398.519 C 1226.509 398.933, 1226 399.644, 1226 402.019 L 1226 405 1246.500 405 L 1267 405 1267 402.079 C 1267 398.956, 1266.943 398.929, 1257.237 397.463 C 1249.883 396.353, 1249.913 395.648, 1258.365 370.937 L 1265.869 349 1260.903 349 C 1257.852 349, 1255.753 349.482, 1255.459 350.250 M 1303 349.370 C 1303 349.574, 1306.353 359.544, 1310.452 371.526 C 1315.957 387.618, 1317.657 393.772, 1316.960 395.074 C 1316.052 396.772, 1314.957 397.137, 1306.750 398.478 C 1303.401 399.025, 1303 399.407, 1303 402.045 L 1303 405 1324 405 L 1345 405 1345 401.500 C 1345 398.835, 1344.582 397.999, 1343.250 397.994 C 1342.287 397.991, 1339.811 397.520, 1337.746 396.946 C 1332.992 395.626, 1332.250 394.162, 1323.463 368.750 L 1316.634 349 1309.817 349 C 1306.068 349, 1303 349.167, 1303 349.370" fill="url(#goldenGlow)" fill-rule="evenodd" />
</svg>
